# xmcd CD database file
# Copyright (C) 1993-2000  Ti Kan
#
# Track frame offsets:
#	150
#	19606
#	35124
#	49919
#	65334
#	78655
#	90376
#	108516
#	126039
#	141655
#	158255
#	175015
#	189025
#	202713
#	216137
#	232580
#	247012
#	258460
#	273064
#	286107
#	302631
#
# Disc length: 4195 seconds
#
# Revision: 1
# Processed by: cddbd v1.4PL0 Copyright (c) Steve Scherf et al.
# Submitted via: xmcd 2.6 PL0
#
DISCID=11106115
DTITLE=Tom Cunningham  - The Sky's The Limit  Vol. 2
DYEAR=1900
DGENRE=
TTITLE0=Riders In The Sky
TTITLE1=Too Lazy To Work
TTITLE2=Road To El Paso
TTITLE3=Heartbreak Train
TTITLE4=Meet Me In Stockholm
TTITLE5=Lotta Lovin'
TTITLE6=I Won't
TTITLE7=Hollywood Way
TTITLE8=Don't Look Back
TTITLE9=She's Gone (But I Love Her Still)
TTITLE10=She Had The Nicest Pair Of BBBBoots
TTITLE11=No More
TTITLE12=Transplant
TTITLE13=Sunny Acapulco
TTITLE14=The Lonesome Train Of Memmories
TTITLE15=Todo Para Ti (This Is For You)
TTITLE16=Crying In The Chapel
TTITLE17=Don't Catch That Pane Tonight
TTITLE18=Honky Tonk In Texas
TTITLE19=I Saw No Tears
TTITLE20=Bad Day
EXTD=
EXTT0=
EXTT1=
EXTT2=
EXTT3=
EXTT4=
EXTT5=
EXTT6=
EXTT7=
EXTT8=
EXTT9=
EXTT10=
EXTT11=
EXTT12=
EXTT13=
EXTT14=
EXTT15=
EXTT16=
EXTT17=
EXTT18=
EXTT19=
EXTT20=
PLAYORDER=
